<svg width="20" height="20" viewBox="0 0 20 20" fill="none" xmlns="http://www.w3.org/2000/svg">
<path d="M15.8333 9.16663H4.16667C3.24619 9.16663 2.5 9.91282 2.5 10.8333V16.6666C2.5 17.5871 3.24619 18.3333 4.16667 18.3333H15.8333C16.7538 18.3333 17.5 17.5871 17.5 16.6666V10.8333C17.5 9.91282 16.7538 9.16663 15.8333 9.16663Z" stroke="url(#paint0_linear_112_586)" stroke-width="1.5" stroke-linecap="round" stroke-linejoin="round"/>
<path d="M5.83333 9.16663V5.83329C5.83333 4.72822 6.27232 3.66842 7.05372 2.88701C7.83512 2.10561 8.89493 1.66663 9.99999 1.66663C11.1051 1.66663 12.1649 2.10561 12.9463 2.88701C13.7277 3.66842 14.1667 4.72822 14.1667 5.83329V9.16663" stroke="url(#paint1_linear_112_586)" stroke-width="1.5" stroke-linecap="round" stroke-linejoin="round"/>
<defs>
<linearGradient id="paint0_linear_112_586" x1="10" y1="9.16663" x2="10" y2="18.3333" gradientUnits="userSpaceOnUse">
<stop stop-color="#F8BF27"/>
<stop offset="1" stop-color="#F29F11"/>
</linearGradient>
<linearGradient id="paint1_linear_112_586" x1="9.99999" y1="1.66663" x2="9.99999" y2="9.16663" gradientUnits="userSpaceOnUse">
<stop stop-color="#F8BF27"/>
<stop offset="1" stop-color="#F29F11"/>
</linearGradient>
</defs>
</svg>
